<svg width="22" height="22" viewBox="0 0 22 22" fill="none" xmlns="http://www.w3.org/2000/svg">
<path fill-rule="evenodd" clip-rule="evenodd" d="M20.7501 3.41668C21.3484 2.81838 21.3484 1.84833 20.7501 1.25002V1.25002C20.1518 0.651712 19.1817 0.651712 18.5834 1.25002L11.0001 8.83335L3.41675 1.25002C2.81844 0.651711 1.84839 0.651712 1.25008 1.25002V1.25002C0.651773 1.84833 0.651773 2.81838 1.25008 3.41669L8.83341 11L1.25008 18.5834C0.651772 19.1817 0.651773 20.1517 1.25008 20.75V20.75C1.84839 21.3483 2.81844 21.3483 3.41675 20.75L11.0001 13.1667L18.5834 20.75C19.1817 21.3483 20.1518 21.3483 20.7501 20.75V20.75C21.3484 20.1517 21.3484 19.1817 20.7501 18.5834L13.1667 11L20.7501 3.41668Z" fill="black"/>
</svg>
